<svg width="38" height="38" viewBox="0 0 38 38" fill="none" xmlns="http://www.w3.org/2000/svg">
<g filter="url(#filter0_d)">
<path d="M5.49971 16.5001H6.99974V27C6.99974 28.6545 8.34527 30 9.99981 30H28.0002C29.6547 30 31.0003 28.6545 31.0003 27V16.5001H32.5003C32.7969 16.5001 33.0869 16.4121 33.3335 16.2472C33.5801 16.0824 33.7723 15.8482 33.8858 15.5741C33.9993 15.3001 34.029 14.9985 33.9712 14.7076C33.9133 14.4167 33.7705 14.1494 33.5608 13.9397L20.0605 0.439797C19.9213 0.30038 19.756 0.189774 19.5741 0.114309C19.3921 0.0388437 19.197 0 19 0C18.803 0 18.6079 0.0388437 18.4259 0.114309C18.244 0.189774 18.0787 0.30038 17.9395 0.439797L4.43919 13.9397C4.22947 14.1494 4.08666 14.4167 4.02881 14.7076C3.97095 14.9985 4.00066 15.3001 4.11417 15.5741C4.22767 15.8482 4.41989 16.0824 4.66651 16.2472C4.91313 16.4121 5.20308 16.5001 5.49971 16.5001ZM15.9999 27V19.5001H22.0001V27H15.9999ZM19 3.62127L28.0002 12.6212V19.5001L28.0017 27H25.0001V19.5001C25.0001 17.8456 23.6546 16.5001 22.0001 16.5001H15.9999C14.3454 16.5001 12.9999 17.8456 12.9999 19.5001V27H9.99981V12.6212L19 3.62127Z" fill="#66D7EE"/>
</g>
<defs>
<filter id="filter0_d" x="0" y="0" width="38" height="38" filterUnits="userSpaceOnUse" color-interpolation-filters="sRGB">
<feFlood flood-opacity="0" result="BackgroundImageFix"/>
<feColorMatrix in="SourceAlpha" type="matrix" values="0 0 0 0 0 0 0 0 0 0 0 0 0 0 0 0 0 0 127 0"/>
<feOffset dy="4"/>
<feGaussianBlur stdDeviation="2"/>
<feColorMatrix type="matrix" values="0 0 0 0 0 0 0 0 0 0 0 0 0 0 0 0 0 0 0.25 0"/>
<feBlend mode="normal" in2="BackgroundImageFix" result="effect1_dropShadow"/>
<feBlend mode="normal" in="SourceGraphic" in2="effect1_dropShadow" result="shape"/>
</filter>
</defs>
</svg>
