<svg width="38" height="38" viewBox="0 0 38 38" fill="none" xmlns="http://www.w3.org/2000/svg">
<g filter="url(#filter0_d)">
<path d="M29.2525 23.1938C27.9212 21.0487 24.9906 18.75 19 18.75C13.0094 18.75 10.0806 21.0469 8.7475 23.1938C9.97578 24.7336 11.5355 25.9766 13.3105 26.8304C15.0856 27.6841 17.0303 28.1267 19 28.125C20.9697 28.1267 22.9144 27.6841 24.6895 26.8304C26.4645 25.9766 28.0242 24.7336 29.2525 23.1938Z" fill="#66D7EE"/>
<path fill-rule="evenodd" clip-rule="evenodd" d="M19 16.875C20.4918 16.875 21.9226 16.2824 22.9775 15.2275C24.0324 14.1726 24.625 12.7418 24.625 11.25C24.625 9.75816 24.0324 8.32742 22.9775 7.27252C21.9226 6.21763 20.4918 5.625 19 5.625C17.5082 5.625 16.0774 6.21763 15.0225 7.27252C13.9676 8.32742 13.375 9.75816 13.375 11.25C13.375 12.7418 13.9676 14.1726 15.0225 15.2275C16.0774 16.2824 17.5082 16.875 19 16.875Z" fill="#66D7EE"/>
<path fill-rule="evenodd" clip-rule="evenodd" d="M19 1.875C15.519 1.875 12.1806 3.25781 9.71922 5.71922C7.25781 8.18064 5.875 11.519 5.875 15C5.875 18.481 7.25781 21.8194 9.71922 24.2808C12.1806 26.7422 15.519 28.125 19 28.125C22.481 28.125 25.8194 26.7422 28.2808 24.2808C30.7422 21.8194 32.125 18.481 32.125 15C32.125 11.519 30.7422 8.18064 28.2808 5.71922C25.8194 3.25781 22.481 1.875 19 1.875ZM4 15C4 11.0218 5.58035 7.20644 8.3934 4.3934C11.2064 1.58035 15.0218 0 19 0C22.9782 0 26.7936 1.58035 29.6066 4.3934C32.4196 7.20644 34 11.0218 34 15C34 18.9782 32.4196 22.7936 29.6066 25.6066C26.7936 28.4196 22.9782 30 19 30C15.0218 30 11.2064 28.4196 8.3934 25.6066C5.58035 22.7936 4 18.9782 4 15Z" fill="#66D7EE"/>
</g>
<defs>
<filter id="filter0_d" x="0" y="0" width="38" height="38" filterUnits="userSpaceOnUse" color-interpolation-filters="sRGB">
<feFlood flood-opacity="0" result="BackgroundImageFix"/>
<feColorMatrix in="SourceAlpha" type="matrix" values="0 0 0 0 0 0 0 0 0 0 0 0 0 0 0 0 0 0 127 0"/>
<feOffset dy="4"/>
<feGaussianBlur stdDeviation="2"/>
<feColorMatrix type="matrix" values="0 0 0 0 0 0 0 0 0 0 0 0 0 0 0 0 0 0 0.25 0"/>
<feBlend mode="normal" in2="BackgroundImageFix" result="effect1_dropShadow"/>
<feBlend mode="normal" in="SourceGraphic" in2="effect1_dropShadow" result="shape"/>
</filter>
</defs>
</svg>
