<svg width="38" height="38" viewBox="0 0 38 38" fill="none" xmlns="http://www.w3.org/2000/svg">
<g clip-path="url(#clip0)" filter="url(#filter0_d)">
<path fill-rule="evenodd" clip-rule="evenodd" d="M23.5787 19.5788C23.7529 19.4044 23.9597 19.2661 24.1873 19.1718C24.4149 19.0774 24.6589 19.0288 24.9053 19.0288C25.1517 19.0288 25.3957 19.0774 25.6233 19.1718C25.8509 19.2661 26.0577 19.4044 26.2319 19.5788L33.4506 26.7975C33.8024 27.1491 34.0002 27.626 34.0004 28.1234C34.0005 28.6208 33.8031 29.0979 33.4515 29.4497C33.1 29.8015 32.623 29.9993 32.1256 29.9994C31.6283 29.9996 31.1512 29.8022 30.7994 29.4506L23.5806 22.2319C23.4063 22.0577 23.268 21.8509 23.1736 21.6233C23.0793 21.3957 23.0307 21.1517 23.0307 20.9053C23.0307 20.6589 23.0793 20.4149 23.1736 20.1873C23.268 19.9597 23.4063 19.7529 23.5806 19.5788H23.5787Z" fill="#66D7EE"/>
<path fill-rule="evenodd" clip-rule="evenodd" d="M16.1875 22.5C17.5418 22.5 18.8828 22.2333 20.1339 21.715C21.3851 21.1968 22.5219 20.4371 23.4795 19.4795C24.4371 18.5219 25.1968 17.3851 25.715 16.1339C26.2333 14.8828 26.5 13.5418 26.5 12.1875C26.5 10.8332 26.2333 9.49225 25.715 8.24108C25.1968 6.98991 24.4371 5.85307 23.4795 4.89546C22.5219 3.93786 21.3851 3.17824 20.1339 2.65999C18.8828 2.14174 17.5418 1.875 16.1875 1.875C13.4525 1.875 10.8294 2.96149 8.89546 4.89546C6.96149 6.82943 5.875 9.45246 5.875 12.1875C5.875 14.9225 6.96149 17.5456 8.89546 19.4795C10.8294 21.4135 13.4525 22.5 16.1875 22.5ZM28.375 12.1875C28.375 15.4198 27.091 18.5198 24.8054 20.8054C22.5198 23.091 19.4198 24.375 16.1875 24.375C12.9552 24.375 9.85524 23.091 7.56964 20.8054C5.28404 18.5198 4 15.4198 4 12.1875C4 8.95517 5.28404 5.85524 7.56964 3.56964C9.85524 1.28404 12.9552 0 16.1875 0C19.4198 0 22.5198 1.28404 24.8054 3.56964C27.091 5.85524 28.375 8.95517 28.375 12.1875Z" fill="#66D7EE"/>
</g>
<defs>
<filter id="filter0_d" x="0" y="0" width="38" height="38" filterUnits="userSpaceOnUse" color-interpolation-filters="sRGB">
<feFlood flood-opacity="0" result="BackgroundImageFix"/>
<feColorMatrix in="SourceAlpha" type="matrix" values="0 0 0 0 0 0 0 0 0 0 0 0 0 0 0 0 0 0 127 0"/>
<feOffset dy="4"/>
<feGaussianBlur stdDeviation="2"/>
<feColorMatrix type="matrix" values="0 0 0 0 0 0 0 0 0 0 0 0 0 0 0 0 0 0 0.25 0"/>
<feBlend mode="normal" in2="BackgroundImageFix" result="effect1_dropShadow"/>
<feBlend mode="normal" in="SourceGraphic" in2="effect1_dropShadow" result="shape"/>
</filter>
<clipPath id="clip0">
<rect width="30" height="30" fill="white" transform="translate(4)"/>
</clipPath>
</defs>
</svg>
